<?xml version="1.0" encoding="utf-8"?>
<!-- Generator: Adobe Illustrator 23.0.1, SVG Export Plug-In . SVG Version: 6.00 Build 0)  -->
<svg version="1.1" id="Layer_1" xmlns="http://www.w3.org/2000/svg" xmlns:xlink="http://www.w3.org/1999/xlink" x="0px" y="0px"
	 viewBox="0 0 1000 1000" style="enable-background:new 0 0 1000 1000;" xml:space="preserve">
<style type="text/css">
	.st0{fill:#2C98D4;}
</style>
<path class="st0" d="M652.81,852.5l-97.5-165H437.19c-8.12,0-14.84-2.66-20.16-7.97c-5.31-5.31-7.97-12.03-7.97-20.16
	s2.66-14.84,7.97-20.16c5.31-5.31,12.03-7.97,20.16-7.97h118.12l97.5-165h23.44l-48.75,165h123.75l28.13-37.5H800l-19.69,65.63
	L800,725h-20.63l-28.13-37.5H627.5l48.75,165H652.81z M323.75,533.75l48.75-165H248.75l-28.13,37.5H200l19.69-65.63L200,275h20.63
	l28.13,37.5H372.5l-48.75-165h23.44l97.5,165h118.13c8.12,0,14.84,2.66,20.16,7.97c5.31,5.31,7.97,12.03,7.97,20.16
	c0,8.12-2.66,14.84-7.97,20.16c-5.31,5.31-12.03,7.97-20.16,7.97H444.69l-97.5,165C347.19,533.75,323.75,533.75,323.75,533.75z"/>
</svg>
